<svg width="21" height="20" viewBox="0 0 21 20" fill="none" xmlns="http://www.w3.org/2000/svg">
<path d="M18.2938 5.63416L15.4855 16.9092C15.2855 17.7508 14.5355 18.3341 13.6688 18.3341H2.71883C1.46049 18.3341 0.560505 17.1008 0.935505 15.8924L4.44383 4.62585C4.6855 3.84252 5.41051 3.30078 6.22718 3.30078H16.4772C17.2688 3.30078 17.9272 3.78412 18.2022 4.45079C18.3605 4.80912 18.3938 5.21749 18.2938 5.63416Z" stroke="white" stroke-opacity="0.7" stroke-miterlimit="10"/>
<path d="M13.3523 18.3333H17.3356C18.4106 18.3333 19.2523 17.425 19.1773 16.35L18.3523 5" stroke="white" stroke-opacity="0.7" stroke-miterlimit="10" stroke-linecap="round" stroke-linejoin="round"/>
<path d="M8.08569 5.31675L8.95237 1.7168" stroke="white" stroke-opacity="0.7" stroke-miterlimit="10" stroke-linecap="round" stroke-linejoin="round"/>
<path d="M13.6689 5.32562L14.4523 1.70898" stroke="white" stroke-opacity="0.7" stroke-miterlimit="10" stroke-linecap="round" stroke-linejoin="round"/>
<path d="M6.43579 10H13.1025" stroke="white" stroke-opacity="0.7" stroke-miterlimit="10" stroke-linecap="round" stroke-linejoin="round"/>
<path d="M5.60254 13.334H12.2692" stroke="white" stroke-opacity="0.7" stroke-miterlimit="10" stroke-linecap="round" stroke-linejoin="round"/>
</svg>
